Patient4_TMGait_0pt7_02_left_18_EMG.mot
version=1
nRows=36
nColumns=33
inDegrees=no
endheader
time	1LAddLong	2LGlutMax	3LGlutMed	4LIliopsoas	5LSemiMemb	6LBicFemLong	7LRecFem	8LVastMed	9LVastLat	10LGasMed	11LTibAnt	12lTibPost	13LPeroneusLong	14LSol	15LExtDigLong	16LFlexDigLong	17RAddLong	18RGlutMax	19RGlutMed	20RIliopsoas	21RSemiMemb	22RBicFemLong	23RRecFem	24RVastMed	25RVastLat	26RGasMed	27RTibAnt	28RTibPost	29RPeroneusLong	30RSol	31RExtDigLong	32RFlexDigLong
20.752	0.025635	0.27649	0.085754	0.014038	-0.18875	-0.13214	-0.80337	0.032959	0.12283	0.018616	0.039063	0.13992	-0.059204	-0.34103	-0.1265	0.030212	-0.21057	-0.95261	0.15884	-0.13153	-0.13001	0.18356	0.63522	-0.046387	-0.031738	-0.005798	-0.006561	-0.02243	0.1738	-0.17548	0.00061	-0.014954
20.753	0.048828	0.053864	0.031586	-0.008392	-0.11536	-0.24872	-0.784	0.01709	0.15564	0.066071	0.085144	0.11963	0.015106	-0.29236	-0.072174	-0.049133	-0.13565	-0.99609	-0.10223	-0.080719	-0.12573	0.053253	0.67902	-0.034332	-0.028229	0.007019	0.016937	-0.010529	0.11597	-0.1471	0.001221	-0.014496
20.754	0.05249	-0.10025	0.01297	-0.020142	-0.03067	-0.45227	-0.79773	-0.006256	0.15274	0.020447	0.080872	0.10849	-0.46692	0.06424	0.019684	-0.055542	-0.059357	-0.9903	-0.091705	-0.11673	-0.10132	-0.027313	0.68924	0.026245	-0.022736	0.007019	0.019836	-0.010681	0.15762	-0.088501	0.001984	-0.024567
20.755	0.045319	-0.26108	-0.025787	-0.009308	-0.010223	-0.24124	-0.77545	-0.021667	0.2179	0.01709	0.001831	0.088654	-0.60883	0.10422	0.021973	-0.032806	0.009918	-0.97259	0.071564	-0.14999	-0.089569	-0.01709	0.67978	0.023651	-0.048065	-0.001526	0.004578	-0.019379	0.11566	-0.05661	-0.003967	-0.013123
20.756	0.035858	-0.44662	-0.17151	0.003357	-0.018921	0.050049	-0.78293	-0.019379	0.20844	-0.031281	-0.046844	0.024414	-0.47104	0.11002	0.0354	-0.009766	0.005493	-0.99594	-0.04425	0.014801	-0.052948	-0.053558	0.70419	-0.006561	-0.046539	-0.002441	-0.005951	-0.018158	0.065613	-0.054321	-0.005035	-0.016632
20.757	0.012054	-0.65399	-0.15564	0.012512	-0.10407	0.11673	-0.77301	-0.014496	0.071259	-0.12146	-0.074768	-0.023193	0.18005	-0.052185	-0.026855	0.003967	0.043945	-1.0051	-0.29923	0.15839	-0.065155	-0.12054	0.70465	0.035553	-0.045624	0.001831	0.020447	-0.018768	0.008545	-0.12924	-0.001068	-0.011597
20.758	-0.012512	-0.79681	-0.066071	0.020752	-0.11032	0.11047	-0.78674	-0.007324	0.044556	-0.121	-0.088043	-0.000458	0.78751	-0.19699	0.014191	-0.003052	0.071106	-0.99457	-0.37903	0.17746	0.002747	-0.038605	0.73639	0.11261	-0.04425	0.006104	0.032959	-0.016632	0.002899	-0.15671	-0.000763	-0.015259
20.759	-0.019531	-0.89432	-0.04776	0.014801	-0.1294	0.092316	-0.78583	0.034332	0.25986	0.02594	-0.054321	-0.012665	0.51071	-0.1796	0.09552	0.003052	0.1062	-1.0197	-0.34561	0.26276	0.023651	0.079803	0.63461	0.18601	-0.020752	0.00946	0.072632	-0.021667	0.037384	-0.15427	-0.002136	-0.01709
20.76	-0.034943	-0.92148	0.06897	0.002289	-0.014496	0.059204	-0.81116	0.066528	0.43625	0.11246	-0.03067	-0.027771	0.11475	-0.26855	0.074463	-0.011597	0.11368	-0.9668	-0.21347	0.19043	0.004578	0.097809	0.62271	0.10971	-0.009766	-0.000458	0.20172	-0.019684	0.001831	-0.072937	-0.002289	-0.011139
20.761	-0.022888	-0.9372	-0.007477	0.002289	0.068665	0.15243	-0.94833	0.050507	0.52643	0.11353	-0.016174	-0.052032	-0.085907	-0.42419	-0.069275	-0.02121	0.13412	-0.91934	-0.30014	0.10025	-0.027466	0.080872	0.6189	0.069275	0.005035	0.006256	0.27008	-0.019226	-0.002747	-0.10361	-0.000153	-0.007782
20.762	-0.013428	-0.8873	-0.09491	0.024261	0.11108	0.3949	-0.97244	0.027618	0.51239	0.11276	-0.054779	-0.060883	-0.11719	-0.3215	-0.064392	0.001831	0.15472	-0.86975	-0.16159	0.020447	-0.05249	0.11414	0.58838	0.019684	0.023956	0.002899	0.23438	-0.024567	0.010223	-0.11597	-0.002441	-0.017548
20.763	0.010986	-0.80765	-0.096283	0.012207	0.037842	0.53436	-1.1861	-0.005798	0.45883	0.16312	-0.11536	-0.054779	-0.11292	0.050201	-0.071716	0.04303	0.15289	-0.76279	0.026245	-0.067139	-0.066986	0.15442	0.58853	-0.024261	0.003052	-0.00351	-0.022736	-0.023956	0.020294	-0.14206	-0.006104	-0.010834
20.764	0.012054	-0.68665	-0.18677	0.020142	-0.005798	0.47424	-1.2502	-0.026245	0.3006	0.18677	-0.091858	-0.057983	-0.13062	0.075531	-0.10193	0.014648	0.15274	-0.66879	-0.13016	-0.11658	-0.069885	0.15869	0.61249	-0.021057	-0.00412	-0.000763	-0.27618	-0.019226	-0.013885	-0.12985	-0.000153	-0.018311
20.765	-0.014954	-0.64896	-0.30975	0.017548	-0.031128	0.55328	-1.1772	-0.030975	-0.006714	0.14755	-0.028229	-0.069885	-0.046844	0.034485	-0.008087	0.002289	0.15472	-0.5043	-0.23941	-0.053101	-0.085754	0.17487	0.62164	-0.093231	-0.014038	-0.003815	-0.25238	-0.020905	-0.10452	-0.096893	-0.002747	-0.025482
20.766	-0.017853	-0.62927	0.065155	0.014954	-0.055695	0.51437	-1.1516	-0.01709	0.013123	-0.13672	-0.018616	-0.062561	0.04715	0.017853	-0.073853	-0.010223	0.13184	-0.42908	-0.1474	0.029755	-0.10361	0.13931	0.60623	-0.088501	-0.021667	-0.010223	-0.15747	-0.035248	-0.14206	-0.07309	-0.000916	-0.018616
20.767	-0.016327	-0.66589	0.45624	0.005188	-0.046997	0.42541	-1.2569	-0.024719	0.29419	-0.2562	0.13229	-0.071106	0.051575	0.063324	-0.11017	-0.007782	0.083618	-0.32913	-0.51544	0.1622	-0.10437	0.10391	0.61874	-0.045013	-0.014496	-0.003967	-0.16022	-0.021515	-0.097046	-0.061035	-0.000458	-0.027924
20.768	-0.015411	-0.7898	0.28854	0.006409	-0.050201	0.17212	-1.2572	-0.026398	0.47455	-0.18753	0.17273	-0.070648	0.011749	0.087738	-0.11246	-0.008087	0.057678	-0.31723	-0.49286	0.25116	-0.11032	0.072174	0.59387	-0.07782	-0.028687	-0.00061	-0.15976	-0.019379	-0.063477	-0.049133	-0.001831	-0.022278
20.769	-0.027466	-0.78964	0.31158	-0.003052	-0.064087	-0.4953	-1.1752	-0.014191	0.60898	-0.08728	0.15137	-0.060883	-0.059052	0.001373	-0.065613	0.003204	-0.001526	-0.2858	-0.22476	0.22034	-0.098572	-0.011444	0.61615	-0.11246	-0.019073	-0.000305	-0.1152	-0.025787	-0.082245	-0.033875	-0.001678	-0.024109
20.77	-0.035095	-0.68283	0.26901	-0.006409	-0.090027	-0.48187	-1.1711	0.002441	0.60272	-0.039368	0.1091	-0.056152	-0.068817	-0.039368	0.29022	-0.006409	-0.04303	-0.27985	-0.022888	0.09491	-0.051575	-0.043182	0.57358	-0.097504	-0.032043	-0.001831	-0.074463	-0.021515	-0.077209	-0.062866	-0.002136	-0.020447
20.771	-0.042114	-0.52856	0.11139	-0.013428	-0.090942	-0.466	-1.0068	0.002747	0.63156	-0.018921	-0.030975	-0.050659	-0.050507	0.037079	0.46768	-0.009918	-0.014648	-0.26916	-0.2562	0.11139	-0.058746	-0.039063	0.61066	-0.1265	-0.041656	0.001221	0.002747	-0.018768	-0.080566	-0.092773	-0.002136	-0.025635
20.772	-0.041351	-0.31097	0.03006	-0.005188	-0.09903	-0.16266	-0.93536	-0.011139	0.56122	0.002441	-0.16159	-0.039673	-0.031586	0.069885	0.63065	-0.011597	-0.069275	-0.23666	-0.36041	0.2182	-0.078888	-0.039063	0.57526	-0.10956	-0.051727	-0.005341	0.084229	-0.022125	-0.063477	-0.04715	-0.002747	-0.024567
20.773	-0.025482	-0.046539	0.11505	-0.01236	-0.062103	-0.042572	-0.8876	-0.015259	0.3949	0.003967	-0.17029	-0.030823	-0.052948	-0.061646	0.40726	-0.005798	-0.11429	-0.25024	-0.37491	0.22156	-0.096436	-0.001221	0.55695	-0.089569	-0.043793	-0.005493	0.19394	-0.013275	-0.057373	-0.037537	-0.001221	-0.01358
20.774	-0.012512	0.21072	0.10468	-0.013275	-0.031128	-0.070648	-0.82855	-0.013275	0.30624	-0.007782	-0.055389	-0.027313	-0.073242	0.019531	0.067902	-0.018005	-0.16022	-0.25436	-0.57861	0.30624	-0.097809	0.005493	0.36148	-0.13534	-0.046082	-0.003967	0.22461	-0.022583	-0.03418	-0.036926	-0.002899	-0.018921
20.775	-0.019379	0.54901	-0.068359	0.010529	0.024719	-0.29098	-0.75836	-0.007782	0.18127	0.007172	0.12161	-0.021362	-0.039825	0.080261	-0.11673	-0.00824	-0.17364	-0.21866	-0.50598	0.36087	-0.11383	0.029907	0.30365	-0.18021	-0.026703	-0.002594	0.25162	-0.018158	0.010223	-0.058746	-0.003204	-0.014343
20.776	-0.016327	0.96588	0.11734	-0.002747	-0.001831	-0.28275	-0.64545	0.001221	0.20676	0.053253	0.35263	-0.018005	-0.045929	0.055542	-0.21454	-0.015717	-0.18082	-0.20386	-0.41428	0.23499	-0.11169	0.11429	0.37994	-0.1915	-0.037842	0.00351	0.23163	-0.019836	0.051422	-0.080872	0.000305	-0.022888
20.777	-0.030823	1.153	0.60699	-0.005493	-0.070343	-0.10925	-0.62561	0.00885	0.091553	0.011749	0.34332	-0.014648	0.007477	0.039063	-0.31174	-0.025635	-0.19104	-0.11841	-0.10849	0.071869	-0.088196	0.19699	0.3862	-0.24567	-0.027618	0.003967	-0.21255	-0.023041	-0.036774	-0.079041	0.001526	-0.014038
20.778	-0.037842	1.2326	0.69809	0.018921	-0.17563	0.10742	-0.62958	0.011444	0.19989	-0.025787	0.24323	-0.007935	0.017395	0.028381	-0.14236	-0.027618	-0.095215	-0.18845	-0.41473	0.068359	-0.060272	0.23331	0.43915	-0.27435	-0.024261	0.001526	-0.1767	-0.018005	-0.084229	-0.069885	-0.001831	-0.012512
20.779	-0.030518	1.4078	0.62759	0.031281	-0.23697	0.15411	-0.64041	0.010529	0.21179	-0.014801	-0.097961	-0.019531	0.050659	-0.035553	-0.099792	-0.019684	-0.02121	-0.14679	-0.40298	0.055847	-0.031738	0.21851	0.46829	-0.22842	-0.00473	0.005798	0.027771	-0.022583	-0.076141	-0.071411	-0.001831	-0.01358
20.78	-0.022125	1.5115	0.50644	0.009155	-0.24338	-0.010986	-0.56656	-0.008392	0.22598	-0.076904	-0.2356	-0.016327	0.078888	-0.05188	-0.23987	-0.040283	0.052185	-0.10605	0.017395	0.031433	-0.033875	0.1152	0.55298	-0.24872	-0.017395	0.00412	0.005035	-0.020142	0.043945	-0.11292	-0.003815	-0.010681
20.781	-0.013885	1.5428	0.39185	-0.012512	-0.074768	-0.23651	-0.63065	-0.010529	0.18188	-0.21316	-0.20752	-0.018921	0.063171	-0.0354	-0.14725	-0.042267	0.097809	-0.04776	0.07431	0.1358	-0.031738	0.036469	0.62332	-0.24628	0.009155	0.006256	0.032349	-0.019073	0.075378	-0.13962	0.001221	-0.013733
20.782	0.004272	1.49	0.31738	-0.015106	0.088959	-0.36911	-0.62958	-0.01358	0.11383	-0.17929	-0.093079	-0.018158	0.053864	-0.063782	-0.13031	-0.023651	0.090027	-0.032806	-0.42633	0.057068	-0.051422	0.019073	0.53406	-0.18295	0.007477	-0.005188	-0.36591	-0.017853	-0.12909	-0.14435	-0.000458	-0.016632
20.783	0.005035	1.4117	0.33951	-0.032196	0.066376	-0.45044	-0.65384	-0.012817	0.1889	-0.064087	-0.054321	-0.031433	0.057373	-0.041504	-0.081787	-0.014954	0.13794	0.046844	-0.31906	-0.018158	-0.069427	0.013733	0.37491	-0.25192	-0.006866	-0.00351	-0.55084	-0.020447	-0.24841	-0.15167	-0.001831	-0.015106
20.784	-0.002899	1.2399	0.36163	-0.03006	-0.044403	-0.16434	-0.5806	-0.009766	0.29694	-0.000305	-0.056152	-0.040436	0.042877	-0.03891	-0.021057	-0.007782	0.1535	0.14084	-0.37552	-0.10742	-0.077362	0.014648	0.27939	-0.19516	-0.019989	0.003357	-0.16983	-0.020142	-0.11337	-0.18677	-0.005798	-0.013885
20.785	-0.00351	1.1128	0.33966	-0.002899	0.035553	-0.070953	-0.5957	-0.003204	0.34897	0.011902	-0.050354	-0.03952	0.000153	-0.036011	0.006561	-0.021515	0.11215	0.18234	-0.36728	-0.19882	-0.072937	0.028076	0.22568	-0.1387	-0.023804	0.013885	0.32852	-0.015411	0.084839	-0.16174	-0.001678	-0.010071
20.786	0.005646	1.0869	0.27008	0.004425	0.086365	-0.14297	-0.6514	0.023804	0.34058	0.040894	-0.019989	-0.049286	-0.03479	-0.034637	0.077209	-1.4767	0.06958	0.28549	-0.39703	-0.26611	-0.065613	0.066833	0.39444	-0.1329	-0.029602	0.005341	0.007477	-0.016632	0.17807	-0.1062	-0.002441	-0.022278
20.787	0.016022	1.068	0.27252	0.031281	0.063019	-0.10635	-0.56519	0.033417	0.30716	-0.011597	-0.007172	-0.05722	-0.013428	-0.040894	0.10498	0.25131	0.076294	0.42282	-0.45792	-0.1683	-0.049133	0.067596	0.53329	-0.061493	-0.022125	-0.011292	-0.31982	-0.011139	0.18219	-0.079956	-0.002136	-0.010681
